<svg width="24" height="24" viewBox="0 0 24 24" fill="none" xmlns="http://www.w3.org/2000/svg">
  <path d="M8.5 2C4.91 2 2 4.41 2 7.5C2 9.38 3.07 11.05 4.75 12.19C4.63 12.53 4.5 12.86 4.5 13.5C4.5 13.83 4.58 14.15 4.71 14.45L3.5 18L7.08 17.09C7.69 17.35 8.35 17.5 9.05 17.5H9.5C12.81 17.5 15.5 15.09 15.5 12.12C15.5 9.15 12.81 6.74 9.5 6.74H8.5V2Z" fill="#07C160"/>
  <path d="M15.5 7C18.54 7 21 9.21 21 11.93C21 14.66 18.54 16.87 15.5 16.87C15.17 16.87 14.85 16.84 14.54 16.79L11.5 17.5L12.29 15.07C11.67 14.66 11.13 14.15 10.71 13.57C10.29 12.99 10 12.35 10 11.65C10 8.92 12.46 6.71 15.5 6.71V7Z" fill="#07C160"/>
</svg>