<svg width="24" height="24" viewBox="0 0 24 24" fill="none" xmlns="http://www.w3.org/2000/svg">
  <path d="M17.472 14.382C17.119 14.205 15.396 13.353 15.074 13.235C14.752 13.117 14.516 13.058 14.279 13.412C14.043 13.766 13.372 14.556 13.165 14.792C12.958 15.028 12.751 15.057 12.398 14.881C12.045 14.704 10.913 14.331 9.568 13.132C8.506 12.186 7.791 11.02 7.584 10.666C7.377 10.312 7.562 10.119 7.739 9.942C7.898 9.783 8.092 9.531 8.269 9.325C8.446 9.119 8.505 8.972 8.623 8.736C8.741 8.5 8.682 8.293 8.593 8.117C8.505 7.941 7.824 6.269 7.529 5.563C7.241 4.874 6.948 4.975 6.752 4.975C6.575 4.975 6.368 4.966 6.161 4.966C5.954 4.966 5.612 5.045 5.326 5.358C5.04 5.671 4.224 6.431 4.224 7.966C4.224 9.501 5.346 10.978 5.503 11.184C5.66 11.39 7.655 14.746 10.919 16.025C13.386 16.992 13.856 16.759 14.326 16.715C14.953 16.656 16.235 15.985 16.502 15.237C16.769 14.489 16.769 13.85 16.69 13.713C16.611 13.576 16.414 13.517 16.061 13.341H17.472V14.382Z" fill="#25D366"/>
  <path d="M12.0002 0.5C5.64893 0.5 0.5 5.64943 0.5 12.0007C0.5 14.0477 1.03793 16.0354 2.05543 17.7944L0.913929 21.9719L5.19193 20.8504C6.89043 21.7804 8.81943 22.2854 10.7989 22.2854H10.8079C17.1589 22.2854 22.3084 17.136 22.3084 10.7847C22.3084 7.70943 21.1154 4.82043 18.9439 2.64893C16.7724 0.477429 13.8834 -0.715571 10.8082 -0.715571H12.0002V0.5Z" fill="#128C7E"/>
</svg>